<svg id="Layer_1" data-name="Layer 1" xmlns="http://www.w3.org/2000/svg" viewBox="0 0 512 512"><title>star</title><path d="M230.15,3.28S223-.6,235.49,4.45l10.09,3.62,7.61,2.09,7.18,3.18c.17,0,1,3-2.51,29.29a77.52,77.52,0,0,1-2.33,25.08c-.13-.07-6.9,24.91-15.16,51.69-7.94,26.88-20.78,54.31-24.57,57,1.47.49,28.87-63,26.64-67.66,1-.12-23.18,61.08-30.54,63.37,1.32.57,26.48-57.61,21.64-64.56.63.07-21.07,53.62-29.85,57.06-.06,0,6.12-9.16,6.32-12.22-1,1.41-2.11,2.78-3.26,4.12,1.13-2.42,2-5,2.91-7.54l2.63-4s-7.41,10.79-9.69,10.74c-.23-.12.57,6.43,6.84-15.52.06.07,7.44-11.7,13-34.86C228.32,82,230.41,49,230.15,3.28Z" fill="#c5ff00"/><path d="M240.19,12.41s-7.83,1.72,4.85-2.66l10-3.92,7.12-3.5L269.65,0c.1,0,2.7,1.77,16,25.82a80.94,80.94,0,0,1,13.19,22.27s2.15,6.31,5.84,15.74c1.58,4,4.37,11.88,5.65,14.69,2.56,5.35,5.68,11.38,8.9,17.74,6.51,12.64,13.26,27.15,16.62,40.19,3.54,13,3.34,23.83,2.31,26.32.39.15-.2-21.73-7.71-40.09-7-18.51-15.43-34.27-17.12-35.5-.17,0,6.88,14.22,13.36,31.71,6.85,17.3,8.53,38.64,6.09,41.66.29.1-.48-18.75-7.57-35.28C318.58,108.63,309.82,94,306.3,93c-.15,0,6.06,13.16,11.34,28.48,5.62,15.25,7,32.92,4.45,36.66.2.07,0-11.49-1.83-14.14a54.23,54.23,0,0,1-.12,5.49c-.56-2.73-1.42-5.37-2.19-8.06l-.54-5c.18.05.9,13.67-1.05,14.89-.47.1,4.72,4.71-4.19-16.51C314.06,133.54,294.23,83.43,240.19,12.41Z" fill="#c5ff00"/><path d="M326.8,190.58s-1,8.28-1-5.66l-.42-11.14-1-8.2.3-8.13s2.68-2.34,32.49-7a84.76,84.76,0,0,1,28-4.64s116.61,2.41,125.37,7.3c0,0-73.12-7-77.73-4.8,0,0,69.92,5.76,75.29,10.18,0,0-67.82-6.56-73.86-.87,0,0,62.43,6,70,11.68,0,0-12-2.26-15.17-1.56l5.59,1.7-9-.24-5.18-1.31s14.07,3.9,15.06,5.87c0,0,6.42-2.36-19-1.48C476.57,172.31,416.5,158.61,326.8,190.58Z" fill="#c5ff00"/><path d="M385.93,314.33s4.74,6.68-4.21-3.67l-7.48-8-6.05-5.37-5.06-6.16c.38.57-.54-5,22.87-26.27-.09-.07,8.3-10.67,22-18.14.2-.74,24.71-11.12,45.64-27.37,21.58-17.5,51.13-36,57.43-34.54-.18-.35-19,7.59-34.44,18.62-15.77,11-29.87,21.07-31,23.09,0,.08,13.05-8.48,28.14-18.5,14.89-10.08,33.39-18.45,37.06-17.18-.22-.39-16.52,7-30.72,17.4s-27.53,21.07-28.2,25c-.56.89,50.11-34.2,60.08-31.07.11.07-11,3.82-13,6.48a48.93,48.93,0,0,1,5.28-1.58c-2.47,1.38-4.75,3.13-7.16,4.68l-4.75,1.87s13-4.83,14.79-3.3c.13.32,3.54-6-15.27,9.14-.06-.15-13.05,6.36-32.49,22.69-9.75,8.1-22.41,17.1-36.3,28.36C409.36,281.66,394,296,385.93,314.33Z" fill="#c5ff00"/><path d="M341.75,316.76s-7.53,2.76,4.45-3.37l9.41-5.32,6.57-4.58,7.1-3.35c-.17.19,3.64,1,19.61,28.22,0,0,8.89,9.91,14.24,26.41-.07,0,2.34,7.47,5.12,19.07,1.52,5.87,2.82,12.35,4.43,20.25,1,5.91,2.63,12.86,4.46,20.15,3.72,14.59,7.9,30.72,9.39,44.79,1.71,14-.17,26.05-1.69,28.65.65,0,3-23.92-1.57-43.83-3.91-20.47-8.54-38.61-9.85-40.36-.18,0,3.32,16.29,6.79,35.66,3.91,18.93,2.8,42-.28,45,.59,0,2.09-20.31-2.26-38.76-3.91-18.62-9.32-36-12.47-38.07-.14,0,2.91,15.16,5.6,32.37,2.93,17.12,2.22,36.19-1,39.8.19.08,1.67-12.32.22-15.52-.29,2-.5,3.94-.87,5.86-.31-3-.58-6-1.13-9,.1-1.8.2-3.64.2-5.45.23.07-1,14.81-3.11,15.77-.47,0,4,6-1.83-18.62.17,0-.6-15.48-8.68-41C388.29,385.64,374.5,348.93,341.75,316.76Z" fill="#c5ff00"/><path d="M247.25,396.18c.07.08-7.16,4.07,3-5l7.76-7.67q2.61-3.11,5.39-6l6.27-4.88a12.64,12.64,0,0,1,3.27,1.06c2.84,1.28,5.7.79,22.89,5,.06-.29,15.77,2.34,29.4,12.67,0,0,6.32,4.81,15,12.29,4,3.42,10.16,8.84,13.57,12,6,4.83,12.13,10.17,17.92,15.69,22.95,22.35,42.89,46.38,44.48,50.86.67.54-47.42-57.44-54.42-58.44,1.78-.5,49.13,54,49.16,60.67.49.3-44-53.4-53.52-52.43,1.24-.59,42.55,48,43.65,57.56,0,0-7-10.15-9.72-11.95l2.84,5.22-6.2-6.58-2.82-4.63s7.37,12.81,6.76,14.91c0,0,6.11,2.83-12.45-14.52-.08.15-8.08-13.46-28.32-30.09-10.41-7.61-23.42-17.52-39.4-25.7-7.84-3.92-17.22-7.88-25.77-9.19C278,405.4,264.88,408.77,247.25,396.18Z" fill="#c5ff00"/><path d="M128.62,509.55s3.19,7.71-3.69-4.22L119,496l-4.81-6.48-3.78-7.12c-.22-.49,1.42-2.12,17.92-23a78.72,78.72,0,0,1,15.6-21.69c-.26-3.15,87.81-70.6,97.73-71.5-.48-.39-59,38-60.67,42.4-.27.22,54.75-37.48,61.84-36.59-.4-.39-54.5,35-55.34,43.1-.08.13,49.3-32.84,58.49-32.13,0,0-10.32,5-12.27,7.49l5.13-1.87-6.8,5-4.59,2s12.62-5.25,14.52-4.12c.06.08,3.3-5.79-14.86,9.93,0-.05-13.05,6.18-31.93,22.32-9.48,8.13-20.74,18.23-30.66,32.67C154.06,470.79,145.34,488.86,128.62,509.55Z" fill="#c5ff00"/><path d="M125.46,499.18s6.66,4.68-5.29-1.5l-9.77-4.53-7.46-2.69-6.87-3.87c-.29-.15-.13-3.13,5.72-32A103.41,103.41,0,0,1,106,426.81c-.36.64,9.64-28.78,16.22-56.26,3.33-14.59,6.82-31,11.73-44.18,4.6-13.21,11-22.64,13.37-24.22-.48-.29-12,19.19-17.27,39.27-5.65,20.08-9.7,38.34-9.45,40.39.19.19,4.54-15.89,10.1-34.74,5.06-18.77,15.8-38.49,19.69-39.7-.53-.3-10,16.85-14.69,35.38-4.84,18.53-7.87,36.45-6.13,39.8-.12,1.28,17.08-63,28-66.53.08,0-6.78,10.33-6.79,13.88,1.1-1.63,2.08-3.32,3.25-4.88-1.07,2.84-2,5.77-2.93,8.65a51.8,51.8,0,0,0-2.58,4.75c-.19-.12,7.51-12.69,9.7-12.64.4.2-.83-7.25-6.56,17.62-.25-.13-6.28,14.12-10.86,40.76C134.51,410.92,131.29,447.61,125.46,499.18Z" fill="#c5ff00"/><path d="M2.3,209.93c.07,0-6.53,5.07,2.31-5.35l6.67-8.74c1.45-2.29,3-4.54,4.55-6.7l5.54-5.74c.05,0,.63-.07,3.54.69,3.27,1.45,7.66.1,26.25,7.49.74.13,15.38,5.13,27.28,17.6,0,0,5.47,5.81,12.69,13.9,3.14,3.47,8.88,9.73,11,11.6,5.19,4.31,11,9,16.86,13.78,23.79,18.62,48,42.93,49.25,49.21.13-.3-12.78-16.23-27.27-29.39-14.47-13.45-29.34-25.75-31.73-26.31-.37-.79,53.56,47.61,53.45,57.39.17-.29-11.55-14.24-25.25-26.29s-28.35-23.16-32.27-22.7c-.13-.5,47,43.05,47.44,53.67,0,.07-7.09-10.1-10.09-11.55,1,1.68,2.14,3.27,3.1,5-2.12-2.12-4.39-4.07-6.59-6.13L135.89,287s8.35,12.15,7.62,14.34c-.17.17,6.53,2.17-13.25-13.36.05,0-9.53-12.19-30.91-27.4-11-6.92-23.39-18.09-37.9-29-7.25-5.22-15.81-10.72-24.12-13.43C30.27,215.65,19.82,218.5,2.3,209.93Z" fill="#c5ff00"/><path d="M12.37,196.53s-1.07,8.3-1-5.62l-.45-11.17-1.05-8.18.3-8.13s2.81-2.32,33.95-7A91.72,91.72,0,0,1,73.4,151.8s121.84,2.41,131,7.32c0,0-76.39-7-81.2-4.8,0,0,73.05,5.76,78.66,10.18,0,0-70.86-6.56-77.17-.89,0,0,65.23,6.06,73.12,11.7,0,0-12.51-2.26-15.86-1.57l5.82,1.68-9.39-.22L173,173.9s14.7,3.89,15.73,5.86c0,0,6.71-2.36-19.83-1.48C168.86,178.27,106.08,164.59,12.37,196.53Z" fill="#c5ff00"/></svg>